HIERARCHY
ROOT hip
{
	OFFSET 0.000000 0.000000 0.000000 
	CHANNELS 6 Xposition Yposition Zposition Xrotation Zrotation Yrotation
	JOINT abdomen
	{
		OFFSET 0.000000 3.402643 0.000000 
		CHANNELS 3 Xrotation Zrotation Yrotation
		JOINT chest
		{
			OFFSET 0.000000 8.438565 -0.680529 
			CHANNELS 3 Xrotation Zrotation Yrotation
			JOINT neck
			{
				OFFSET 0.000000 10.207942 -0.272212 
				CHANNELS 3 Xrotation Zrotation Yrotation
				JOINT head
				{
					OFFSET 0.000000 3.130431 0.000000 
					CHANNELS 3 Xrotation Zrotation Yrotation
					End Site
					{
						OFFSET 0.000000 3.130435 0.000000 
					}
				}
			}
			JOINT lCollar
			{
				OFFSET 3.470700 6.669187 -0.816635 
				CHANNELS 3 Yrotation Zrotation Xrotation
				JOINT lShldr
				{
					OFFSET 3.198488 0.000000 0.000000 
					CHANNELS 3 Zrotation Yrotation Xrotation
					JOINT lForeArm
					{
						OFFSET 10.139888 0.000000 0.000000 
						CHANNELS 3 Yrotation Zrotation Xrotation
						JOINT lHand
						{
							OFFSET 8.370511 0.000000 0.000000 
							CHANNELS 3 Zrotation Yrotation Xrotation
							End Site
							{
								OFFSET 4.083176 0.000000 0.000000 
							}
						}
					}
				}
			}
			JOINT rCollar
			{
				OFFSET -3.470700 6.669187 -0.816635 
				CHANNELS 3 Yrotation Zrotation Xrotation
				JOINT rShldr
				{
					OFFSET -3.198488 0.000000 0.000000 
					CHANNELS 3 Zrotation Yrotation Xrotation
					JOINT rForeArm
					{
						OFFSET -10.139888 0.000000 0.000000 
						CHANNELS 3 Yrotation Zrotation Xrotation
						JOINT rHand
						{
							OFFSET -8.370511 0.000000 0.000000 
							CHANNELS 3 Zrotation Yrotation Xrotation
							End Site
							{
								OFFSET -4.083176 0.000000 0.000000 
							}
						}
					}
				}
			}
		}
	}
	JOINT lThigh
	{
		OFFSET 5.308129 -1.633274 1.361059 
		CHANNELS 3 Xrotation Zrotation Yrotation
		JOINT lShin
		{
			OFFSET -2.041588 -20.007561 0.000000 
			CHANNELS 3 Xrotation Zrotation Yrotation
			JOINT lFoot
			{
				OFFSET 0.000000 -19.190928 -1.224953 
				CHANNELS 3 Xrotation Yrotation Zrotation
				End Site
				{
					OFFSET 0.000000 -2.449906 4.627600 
				}
			}
		}
	}
	JOINT rThigh
	{
		OFFSET -5.308129 -1.633274 1.361059 
		CHANNELS 3 Xrotation Zrotation Yrotation
		JOINT rShin
		{
			OFFSET 2.041588 -20.007561 0.000000 
			CHANNELS 3 Xrotation Zrotation Yrotation
			JOINT rFoot
			{
				OFFSET 0.000000 -19.190928 -1.224953 
				CHANNELS 3 Xrotation Yrotation Zrotation
				End Site
				{
					OFFSET 0.000000 -2.449906 4.627600 
				}
			}
		}
	}
}
MOTION
Frames: 8
Frame Time: 0.011111
-36.852459 5.771066 -0.409809 81.556099 66.886581 -100.137878 54.872860 1.181603 2.211561 -22.414431 2.944005 -0.826912 -25.759079 -5.848950 2.803618 42.028809 -22.605165 -2.015807 3.554561 -11.856053 1.830316 83.940155 -103.475769 2.351111 -55.451374 8.741703 10.416647 8.524705 12.647240 9.303329 1.017460 16.414410 0.108193 67.280762 43.038410 83.503616 86.314339 -1.360311 30.438877 -8.534408 -12.637552 52.669781 -18.178871 1.426174 -9.303405 32.964500 -5.165565 -5.249430 8.318746 8.350486 -3.781168 5.160240 -6.987093 -25.438980 66.449295 1.970105 8.628258 12.129847 -4.279760 3.125165 
-36.794060 5.736152 -0.265593 81.751907 66.523277 -99.963669 55.772625 1.216326 2.340882 -22.863972 2.829709 -0.855512 -25.760792 -5.682804 2.810744 42.145874 -22.573650 -1.942675 3.554561 -11.856053 1.830316 83.381935 -103.966515 1.074069 -54.869186 8.646808 10.156365 8.524705 12.647240 7.506456 1.017460 16.414410 0.108193 66.840385 43.101723 83.350128 86.332153 -1.396018 30.554209 -8.534408 -12.637552 52.152199 -17.772648 1.445753 -9.263309 32.656048 -5.178846 -5.225335 8.553018 8.472637 -3.799369 5.201635 -7.145551 -25.359648 67.044411 1.892169 8.662703 11.764738 -4.996292 3.276644 
-36.733696 5.701241 -0.122029 81.946358 66.150116 -99.789879 56.701340 1.237551 2.467278 -23.293888 2.715909 -0.871692 -25.748671 -5.634723 2.775646 42.062046 -22.585352 -2.005516 3.554561 -11.856053 1.830316 82.785255 -104.458656 -0.281000 -54.288025 8.550536 9.918620 8.524705 12.647240 5.445910 1.017460 16.414410 0.108193 66.412041 43.282787 83.189911 86.347870 -1.420643 30.650730 -8.534408 -12.637552 51.693214 -17.428169 1.445077 -9.246821 32.439716 -5.171791 -5.194628 8.762360 8.587058 -3.840109 5.106005 -7.382047 -25.268923 68.136497 1.755530 8.734114 10.998965 -5.583126 3.374573 
-36.676918 5.664045 -0.030996 82.164612 65.789017 -99.678032 57.464729 1.300631 2.570910 -23.635769 2.612111 -0.902242 -25.752226 -5.708584 2.757910 41.963448 -22.569218 -2.060216 3.554561 -11.856053 1.830316 81.559425 -105.077293 -1.300513 -53.697479 8.448495 9.671405 8.524705 12.647240 3.102159 1.017460 16.414410 0.108193 65.988739 43.385838 83.143875 86.363235 -1.453652 30.726900 -8.534408 -12.637552 51.165871 -17.068806 1.464713 -9.184162 32.298740 -5.196308 -5.159951 8.881551 8.697116 -3.855367 5.024887 -7.652370 -25.182419 69.519905 1.589169 8.843342 9.942118 -6.043345 3.448602 
-35.890911 5.767476 1.545593 85.460899 65.647514 -97.179993 62.597435 1.212205 4.109780 -27.828348 2.380966 -0.785150 -25.845362 -5.601996 2.663352 41.566612 -22.353657 -2.190250 3.554561 -11.856053 1.830316 81.901588 -104.794731 -2.938337 -53.413750 8.400452 9.553508 8.524705 12.647240 1.617784 1.017460 16.414410 0.108193 65.911995 44.566181 82.982307 86.378220 -1.486579 30.803345 -8.534408 -12.637552 50.150249 -19.444202 3.242240 -9.545711 32.348095 -5.194800 -5.173603 10.805212 9.501495 -4.146111 1.949942 -6.205959 -23.880573 72.120972 1.248395 8.992443 9.822926 -5.808395 3.408519 
-35.424004 5.808260 2.342372 87.740837 65.679123 -95.261993 64.840408 1.353107 5.111746 -29.694469 2.250335 -0.707200 -25.912674 -5.571868 2.613615 41.381001 -22.298338 -2.280443 3.554561 -11.856053 1.830316 81.676170 -104.923553 -4.253421 -53.024345 8.328175 9.385078 8.524705 12.647240 -0.042372 1.017460 16.414410 0.108193 66.245193 46.347027 83.943680 86.374443 -1.475909 30.784264 -8.534408 -12.637552 51.019390 -21.066607 4.374633 -9.914193 32.676693 -5.177372 -5.208160 11.690377 9.868751 -4.269316 0.153772 -5.265367 -23.429245 74.174942 0.984780 9.113842 9.170022 -5.651864 3.378962 
-35.356464 5.795860 2.369453 89.015945 65.930359 -93.894653 64.692375 1.882586 5.612191 -29.694248 2.213301 -0.691402 -25.943886 -5.609333 2.581002 41.368526 -22.394526 -2.382432 3.554561 -11.856053 1.830316 82.859535 -104.415764 -3.319379 -53.181831 8.355726 9.448828 8.524705 12.647240 2.184190 1.017460 16.414410 0.108193 66.125809 46.391888 83.905350 86.378418 -1.486556 30.803341 -8.534408 -12.637552 50.911968 -21.800343 4.833755 -10.230417 33.115871 -5.138304 -5.275242 11.560058 9.858707 -4.281982 -0.264288 -4.832083 -23.500612 75.177437 0.867989 9.174784 8.384450 -5.831639 3.387013 
-35.302299 5.787705 2.371737 90.107086 66.159798 -92.776176 64.504959 2.339225 5.928326 -29.703625 2.152243 -0.701823 -26.064377 -5.455665 2.629049 41.490765 -22.512320 -2.279431 3.554561 -11.856053 1.830316 82.736404 -104.014473 -1.834160 -53.445015 8.404583 9.564527 8.524705 12.647240 3.590441 1.017460 16.414410 0.108193 66.139618 46.333691 84.012703 86.382637 -1.497167 30.822165 -8.534408 -12.637552 50.863136 -22.536636 5.224413 -10.454894 33.683891 -5.098715 -5.333661 11.334857 9.827553 -4.244427 -0.468978 -4.394020 -23.580746 75.546906 0.800003 9.188249 8.020141 -6.256121 3.459013 
